<?xml version="1.0" standalone="no"?>
<!DOCTYPE svg PUBLIC "-//W3C//DTD SVG 20010904//EN"
 "http://www.w3.org/TR/2001/REC-SVG-20010904/DTD/svg10.dtd">
<svg version="1.0" xmlns="http://www.w3.org/2000/svg"
 width="900.000000pt" height="885.000000pt" viewBox="0 0 900.000000 885.000000"
 preserveAspectRatio="xMidYMid meet">
<metadata>
Created by potrace 1.10, written by Peter Selinger 2001-2011
</metadata>
<g transform="translate(0.000000,885.000000) scale(0.100000,-0.100000)"
fill="#000000" stroke="none">
<path d="M4483 7643 c-16 -6 -127 -142 -179 -218 -88 -129 -150 -265 -186
-406 -16 -65 -19 -102 -15 -202 8 -224 72 -357 265 -559 l97 -101 3 -136 c3
-171 -2 -181 -64 -121 -57 56 -94 129 -94 190 0 78 -49 193 -111 261 -74 80
-217 149 -309 149 -65 0 -80 -21 -80 -110 1 -172 82 -325 210 -394 28 -15 93
-36 146 -47 108 -22 128 -32 202 -103 96 -91 96 -92 100 -391 2 -156 -1 -266
-7 -274 -8 -12 -17 -10 -52 14 -102 72 -196 205 -215 306 -10 53 -42 146 -72
208 -108 223 -279 355 -539 416 -61 14 -106 16 -285 11 -207 -5 -390 -23 -415
-39 -17 -11 -16 -49 1 -89 8 -18 43 -100 77 -183 34 -82 67 -157 73 -165 6 -8
20 -31 30 -50 82 -150 248 -294 406 -352 179 -66 359 -64 610 7 116 32 162 15
295 -109 l90 -84 3 -225 c2 -148 0 -233 -7 -246 -11 -20 -12 -20 -68 5 -210
93 -585 180 -806 187 -90 2 -101 -5 -112 -76 -10 -57 -20 -67 -71 -67 -66 0
-67 -4 -62 -298 4 -293 0 -281 106 -302 31 -7 86 -18 122 -25 36 -7 104 -20
153 -29 569 -102 573 -103 613 -143 105 -104 -1 -292 -137 -244 -18 6 -66 11
-107 11 -64 0 -80 -4 -107 -25 -41 -31 -60 -78 -38 -96 12 -11 19 -8 39 18 31
40 78 56 142 47 67 -9 77 -16 63 -43 -7 -11 -16 -21 -20 -21 -11 0 -217 -149
-253 -183 -34 -32 -36 -57 -5 -57 13 0 46 21 79 50 31 27 61 50 67 50 7 0 11
-28 11 -78 0 -82 -15 -124 -66 -185 -27 -32 -32 -77 -10 -77 16 0 93 95 120
147 11 21 16 57 16 108 0 55 5 86 19 114 26 50 95 111 126 111 22 0 25 -4 25
-40 0 -49 -15 -86 -52 -126 -35 -38 -46 -91 -24 -119 16 -19 16 -19 30 -1 8
10 33 60 56 112 32 72 43 114 50 180 7 69 15 94 39 131 17 26 31 56 31 67 0
12 4 28 10 36 7 11 11 8 20 -15 8 -21 10 -121 8 -320 -3 -289 -3 -290 -28
-330 -13 -22 -39 -56 -56 -75 -39 -43 -104 -162 -104 -189 0 -48 45 -34 55 16
8 45 29 79 74 121 33 30 37 32 48 16 9 -13 13 -61 13 -159 0 -103 4 -146 13
-160 32 -43 37 -8 38 253 0 141 4 266 8 277 8 18 12 17 49 -23 55 -60 83 -123
91 -207 5 -61 9 -70 26 -70 18 0 20 6 19 75 0 107 -15 144 -92 237 -74 89 -92
131 -92 212 0 43 3 51 19 51 26 0 102 -61 135 -109 33 -48 43 -51 52 -15 10
39 -8 67 -83 127 -83 67 -95 81 -116 135 -27 67 -19 167 11 148 6 -3 18 -28
26 -54 21 -60 34 -76 123 -146 95 -74 115 -94 147 -140 23 -34 26 -49 26 -118
0 -94 13 -128 72 -192 69 -76 92 -39 28 44 -37 47 -50 91 -50 166 0 80 9 81
87 14 59 -50 77 -58 88 -40 10 16 -19 55 -65 87 -124 85 -229 165 -233 178 -8
19 -3 21 64 29 62 8 97 -2 141 -39 37 -32 58 -32 58 -1 0 34 -71 96 -113 97
-58 3 -111 -2 -158 -13 -57 -14 -97 0 -134 44 -53 63 -50 145 9 203 33 34 73
46 266 80 52 9 127 23 165 30 39 8 111 21 160 30 50 8 124 22 165 30 41 8 102
19 134 25 100 17 96 4 96 297 l0 254 -25 24 c-13 14 -34 25 -47 25 -37 1 -55
22 -60 73 -3 27 -11 54 -17 60 -29 29 -364 -11 -586 -70 -118 -31 -310 -98
-330 -115 -5 -4 -19 -8 -32 -8 l-23 0 -2 183 c-1 100 -2 199 -1 220 5 114 179
263 320 275 32 3 80 -2 116 -11 254 -65 422 -62 593 9 53 22 159 92 216 143
128 114 276 379 343 614 12 42 11 49 -3 65 -48 53 -541 77 -707 35 -109 -28
-174 -54 -256 -103 -143 -85 -264 -242 -319 -415 -12 -38 -26 -80 -31 -93 -5
-13 -9 -33 -9 -46 0 -45 -60 -144 -118 -196 -67 -59 -130 -105 -137 -98 -3 3
-6 121 -7 264 -2 259 -2 259 23 314 54 116 130 175 241 190 122 16 169 36 245
104 90 81 143 210 143 345 0 47 -4 93 -10 101 -13 20 -100 15 -170 -11 -112
-41 -177 -89 -233 -169 -47 -67 -62 -105 -82 -210 -10 -52 -25 -110 -34 -128
-16 -34 -93 -112 -110 -112 -5 0 -12 46 -16 103 -10 152 17 220 129 327 95 90
164 196 207 320 20 57 23 84 23 220 0 132 -4 167 -23 235 -53 183 -144 340
-304 528 -49 58 -52 59 -74 50z m61 -116 c189 -270 275 -441 276 -544 0 -36
-18 -44 -40 -18 -20 25 -66 18 -90 -12 -23 -30 -23 -36 10 -128 11 -33 18 -70
15 -84 -3 -13 -28 -46 -54 -75 -74 -78 -82 -100 -86 -235 -2 -110 -14 -161
-34 -161 -18 0 -21 57 -21 389 0 257 3 343 13 351 6 5 26 21 43 34 42 34 60
95 39 136 -24 47 -79 65 -125 40 -14 -7 -23 -6 -34 6 -9 8 -16 20 -16 24 0 5
-11 17 -25 26 -28 19 -105 11 -105 -11 0 -7 -7 -18 -15 -25 -21 -17 -19 -48 5
-95 11 -22 23 -58 27 -80 6 -43 20 -68 33 -60 5 3 16 30 24 60 18 59 33 77 42
48 3 -10 14 -36 25 -59 16 -35 19 -64 19 -186 0 -165 -9 -196 -47 -156 -32 34
-53 79 -53 115 0 38 -13 49 -31 27 -35 -43 -2 -147 62 -189 55 -37 64 -67 67
-218 1 -86 -2 -146 -9 -159 -20 -37 -33 -2 -35 90 -2 103 -18 146 -71 192 -63
55 -73 76 -73 161 0 55 -6 89 -20 120 l-19 44 24 23 c35 33 42 68 19 109 -16
31 -22 34 -51 30 -26 -5 -33 -2 -38 14 -4 11 -2 25 3 32 6 7 22 42 37 80 15
37 31 67 36 67 5 0 9 5 9 11 0 27 158 264 198 297 25 19 35 14 66 -31z m-155
-306 c13 -24 -9 -57 -33 -48 -16 6 -22 47 -9 60 12 13 32 7 42 -12z m156 -91
c0 -16 -6 -26 -18 -28 -19 -4 -32 20 -23 44 9 25 41 13 41 -16z m-286 -152
c-5 -10 -21 -18 -34 -18 -20 0 -25 5 -25 24 0 27 25 38 52 22 12 -7 14 -15 7
-28z m498 -63 c7 -20 -2 -29 -21 -22 -9 4 -13 13 -10 22 8 19 23 19 31 0z
m-568 -47 c36 -57 45 -87 47 -158 2 -86 18 -127 63 -159 47 -33 73 -83 69
-132 -2 -24 -8 -44 -15 -46 -29 -10 -142 181 -177 298 -16 56 -23 219 -8 219
4 0 14 -10 21 -22z m651 -27 c0 -56 -23 -178 -43 -231 -32 -87 -131 -232 -152
-223 -28 10 -34 110 -10 166 8 20 31 48 50 62 51 39 75 84 75 139 0 62 36 136
66 136 10 0 14 -14 14 -49z m-858 -418 c60 -23 127 -69 170 -116 66 -73 120
-212 89 -231 -5 -3 -54 37 -109 89 -55 52 -105 95 -111 95 -31 0 -2 -48 81
-135 100 -105 104 -123 25 -111 -47 7 -111 47 -160 98 -67 71 -121 239 -98
301 13 33 48 36 113 10z m1136 -70 c-3 -71 -9 -99 -31 -145 -33 -68 -99 -138
-156 -167 -51 -27 -131 -39 -131 -21 0 7 38 51 84 99 89 91 116 141 76 141
-14 0 -51 -31 -108 -90 -110 -113 -129 -116 -100 -16 40 138 211 283 336 285
l34 1 -4 -87z m-1658 -268 c203 -31 328 -88 445 -201 106 -103 101 -126 -17
-80 -35 14 -82 30 -105 36 -47 12 -103 68 -103 104 0 29 -40 76 -65 76 -27 0
-85 -59 -85 -86 0 -28 44 -64 80 -64 15 0 36 -10 50 -25 16 -17 57 -36 120
-55 52 -17 110 -39 128 -50 20 -12 50 -20 78 -20 37 0 51 -6 74 -29 16 -16 32
-41 35 -57 4 -16 13 -45 20 -64 37 -96 49 -140 39 -150 -7 -7 -69 34 -184 120
-191 141 -222 160 -284 168 -58 7 -81 21 -175 112 -60 57 -95 83 -125 92 -25
7 -53 25 -72 47 -27 30 -38 36 -73 36 -23 0 -47 -7 -56 -16 -19 -18 -30 -78
-21 -112 11 -47 79 -54 138 -13 50 36 84 20 197 -89 81 -79 91 -85 181 -115
93 -31 199 -96 200 -122 0 -11 -37 -10 -58 1 -9 5 -52 23 -94 40 -68 27 -88
31 -177 31 -92 0 -102 2 -130 25 -16 14 -40 42 -51 61 -12 19 -35 41 -51 49
-26 14 -32 14 -59 0 -18 -10 -31 -24 -32 -38 -5 -72 17 -97 83 -97 32 0 61 -8
86 -22 32 -19 58 -24 165 -28 121 -6 129 -8 155 -32 40 -38 74 -48 161 -48 82
0 142 -23 142 -55 0 -13 -20 -15 -129 -15 -141 0 -165 5 -219 50 -36 29 -39
30 -149 30 -104 0 -113 2 -141 25 -41 35 -76 33 -99 -5 -9 -16 -23 -30 -29
-30 -14 0 -97 95 -141 161 -33 50 -109 203 -123 247 -5 15 -18 52 -29 82 -30
79 -29 84 31 100 148 38 323 47 468 25z m2421 -4 c47 -5 105 -14 128 -21 36
-9 41 -14 41 -40 0 -16 -6 -44 -14 -62 -8 -18 -29 -69 -47 -113 -73 -178 -199
-352 -318 -439 -65 -48 -174 -100 -252 -120 -124 -33 -422 -7 -497 42 -25 16
-20 17 170 22 197 5 197 5 225 32 42 40 74 48 193 48 122 0 140 4 140 31 0 18
-9 19 -149 19 -117 0 -153 -3 -164 -14 -8 -8 -31 -26 -52 -40 -36 -25 -44 -26
-176 -26 -116 0 -139 2 -139 15 0 31 51 50 152 55 91 5 100 8 145 40 47 34 51
34 173 40 121 6 171 17 185 39 3 6 29 11 57 11 34 0 58 6 70 17 31 28 19 91
-21 113 -28 14 -87 -13 -106 -50 -8 -16 -32 -41 -52 -55 -34 -23 -47 -25 -141
-25 -109 0 -139 -8 -206 -54 -38 -25 -106 -36 -106 -17 0 15 95 90 141 111 24
11 61 20 81 20 42 0 63 15 184 132 71 68 86 78 118 78 20 0 53 -9 73 -20 21
-11 48 -20 60 -20 53 0 82 75 46 118 -29 33 -56 35 -98 6 -21 -14 -60 -29 -86
-33 -59 -10 -103 -39 -189 -126 -70 -72 -112 -95 -169 -95 -32 0 -63 -19 -225
-140 -103 -77 -196 -140 -207 -140 -10 0 -19 1 -19 3 0 9 73 207 87 236 16 32
27 39 98 64 44 15 94 34 111 42 18 8 50 15 72 15 31 0 53 9 101 45 40 30 71
45 91 45 36 0 70 31 70 64 0 32 -37 76 -63 76 -32 -1 -62 -28 -91 -85 -31 -61
-55 -79 -124 -94 -30 -6 -77 -22 -106 -36 -29 -14 -58 -25 -64 -25 -59 0 92
166 198 217 112 54 218 86 320 96 73 8 269 6 351 -2z m-2258 -128 c9 -9 -13
-34 -24 -27 -14 8 -11 34 4 34 8 0 17 -3 20 -7z m1783 -4 c8 -14 -18 -31 -30
-19 -9 9 0 30 14 30 5 0 12 -5 16 -11z m-2143 -21 c7 -21 -4 -38 -24 -38 -24
0 -37 29 -18 41 20 12 37 11 42 -3z m2517 -22 c0 -8 -4 -17 -9 -20 -10 -7 -23
19 -14 28 11 11 23 6 23 -8z m-2466 -224 c9 -14 -12 -35 -28 -29 -23 9 -20 37
3 37 11 0 22 -4 25 -8z m2399 -27 c-9 -15 -11 -15 -23 0 -12 14 -12 18 1 25
19 12 33 -4 22 -25z m-2118 -226 c22 -6 58 -25 79 -42 l39 -31 191 -5 191 -6
-35 -21 c-60 -37 -197 -57 -340 -51 -132 6 -208 23 -290 68 -128 70 -122 84
35 92 33 2 67 4 75 5 8 1 33 -3 55 -9z m230 -719 c265 -48 574 -149 622 -202
16 -18 18 -45 21 -252 3 -187 1 -234 -10 -244 -15 -12 -28 -10 -163 28 -44 12
-132 35 -195 52 -63 16 -128 33 -145 38 -16 4 -66 18 -110 30 -106 29 -182 49
-225 59 -19 4 -45 13 -57 20 -23 12 -23 13 -23 253 l0 241 113 -6 c61 -3 139
-11 172 -17z m1625 -224 l0 -244 -32 -10 c-18 -6 -44 -13 -58 -16 -62 -16
-252 -66 -325 -86 -81 -22 -102 -28 -305 -82 -63 -17 -135 -32 -160 -32 l-45
-1 1 227 c1 195 4 231 18 253 23 35 154 94 316 144 116 35 210 56 315 71 44 6
87 13 95 15 8 1 52 3 98 4 l82 1 0 -244z m-1993 96 c8 -5 13 -64 15 -194 3
-209 4 -211 78 -223 98 -16 263 -50 330 -67 41 -11 93 -23 116 -28 22 -5 51
-13 65 -18 13 -5 51 -17 84 -27 33 -9 76 -23 95 -30 212 -76 268 -85 350 -55
34 12 65 23 140 49 32 11 89 29 165 50 170 49 408 103 557 126 63 10 68 25 68
226 0 191 6 213 49 189 20 -10 21 -19 21 -224 0 -246 2 -241 -96 -256 -33 -5
-108 -18 -169 -30 -60 -11 -135 -25 -165 -30 -30 -5 -75 -14 -100 -19 -25 -6
-83 -17 -130 -26 -47 -9 -113 -23 -147 -31 -34 -8 -73 -14 -87 -14 -16 0 -37
-14 -63 -43 -47 -54 -90 -77 -141 -77 -40 0 -61 12 -144 81 -36 30 -58 38
-138 53 -52 9 -129 24 -170 32 -138 28 -214 42 -310 59 -52 10 -125 23 -162
31 -37 8 -79 14 -93 14 -14 0 -37 11 -50 25 -25 24 -25 25 -25 233 0 148 3
211 12 220 14 14 28 15 45 4z"/>
<path d="M3682 4617 c-19 -22 1 -36 79 -56 40 -11 110 -29 154 -41 328 -90
445 -111 445 -80 0 13 -48 37 -96 49 -22 5 -129 32 -239 61 -158 40 -322 80
-331 80 -1 0 -6 -6 -12 -13z"/>
<path d="M3675 4486 c-19 -14 -19 -15 -2 -34 10 -11 32 -22 50 -26 18 -3 57
-13 87 -21 147 -42 449 -118 483 -123 52 -6 66 10 31 37 -15 11 -34 21 -43 21
-9 0 -36 7 -61 15 -25 8 -92 28 -150 45 -58 17 -127 37 -155 45 -213 63 -211
63 -240 41z"/>
<path d="M3671 4331 c-19 -12 29 -33 146 -61 48 -12 108 -27 133 -34 56 -17
221 -61 323 -87 53 -13 71 -7 41 16 -63 49 -280 118 -494 156 -120 21 -130 22
-149 10z"/>
<path d="M5268 4625 c-2 -3 -27 -9 -54 -15 -27 -6 -134 -33 -239 -61 -104 -27
-209 -54 -232 -59 -56 -12 -105 -38 -100 -53 5 -16 76 -12 147 7 30 8 75 20
100 27 25 6 61 15 80 19 92 20 356 92 364 100 13 13 -12 40 -39 40 -12 0 -24
-2 -27 -5z"/>
<path d="M5259 4486 c-5 -5 -145 -44 -199 -56 -19 -4 -62 -15 -95 -24 -33 -10
-111 -30 -174 -47 -109 -28 -157 -51 -145 -70 9 -14 56 -10 140 12 207 54 434
112 476 123 80 19 104 66 34 66 -18 0 -35 -2 -37 -4z"/>
<path d="M5160 4320 c-218 -40 -453 -120 -491 -166 -13 -16 -11 -17 21 -10 19
5 51 12 70 16 19 4 71 17 115 30 158 44 181 50 283 75 131 33 181 53 161 66
-19 12 -47 10 -159 -11z"/>
<path d="M3020 2283 c-160 -56 -239 -221 -184 -386 12 -37 33 -68 73 -107 69
-69 127 -90 247 -90 139 0 229 54 298 179 15 27 19 55 19 120 0 73 -4 94 -26
137 -54 107 -160 164 -300 164 -47 -1 -101 -8 -127 -17z m201 -94 c104 -35
158 -170 110 -274 -70 -153 -303 -153 -367 0 -21 50 -18 131 6 181 42 85 151
126 251 93z"/>
<path d="M4883 2284 c-2 -7 -3 -31 -1 -55 l3 -44 98 -2 c54 0 105 -4 113 -7
14 -5 15 -35 12 -236 l-3 -230 65 0 65 0 -4 226 c-2 144 0 229 7 236 9 9 157
14 192 6 12 -2 16 10 18 57 l3 60 -282 0 c-201 0 -283 -3 -286 -11z"/>
<path d="M2065 2000 l0 -290 60 0 60 0 -3 181 c-3 106 0 185 5 190 14 14 323
-307 330 -343 5 -27 7 -28 77 -28 l71 0 0 290 0 290 -62 0 -63 0 0 -180 c0
-99 -4 -180 -9 -180 -7 0 -132 125 -260 259 -23 25 -45 57 -48 73 -5 28 -6 28
-82 28 l-76 0 0 -290z"/>
<path d="M3560 2281 c0 -5 20 -50 45 -100 25 -50 45 -93 45 -96 0 -3 25 -58
56 -122 31 -65 65 -137 76 -161 12 -26 18 -52 14 -67 l-6 -25 80 0 80 0 0 32
c0 17 20 73 45 125 25 51 45 95 45 98 0 6 115 249 135 286 8 14 12 29 8 33 -3
3 -39 6 -79 6 l-73 0 0 -32 c1 -33 -9 -60 -69 -188 -16 -36 -37 -81 -45 -100
-8 -19 -22 -44 -30 -55 -14 -19 -18 -15 -60 75 -75 160 -107 241 -107 271 l0
29 -80 0 c-44 0 -80 -4 -80 -9z"/>
<path d="M4452 2257 c1 -19 -6 -51 -17 -73 -10 -21 -65 -135 -122 -252 -56
-116 -103 -214 -103 -217 0 -3 33 -5 74 -5 l73 0 5 48 c3 29 14 61 28 80 l24
32 118 0 118 0 25 -40 c16 -25 25 -54 25 -80 l0 -40 85 0 c47 0 85 3 85 8 0 4
-56 118 -125 254 -89 177 -125 258 -125 283 l0 35 -85 0 -86 0 3 -33z m124
-214 c19 -42 33 -82 30 -90 -6 -15 -141 -19 -151 -3 -11 18 62 170 82 170 2 0
20 -34 39 -77z"/>
<path d="M5585 2000 l0 -290 68 0 67 0 0 115 0 115 73 0 72 -1 63 -84 c34 -47
62 -91 62 -99 0 -41 10 -46 96 -46 46 0 84 3 84 6 0 4 -34 51 -75 105 -41 53
-75 102 -75 108 0 6 23 22 51 36 39 20 55 36 70 68 48 106 -4 219 -113 246
-27 6 -132 11 -245 11 l-198 0 0 -290z m434 149 c20 -35 8 -75 -29 -94 -23
-12 -57 -15 -148 -13 l-117 3 -3 68 -3 68 143 -3 c141 -3 142 -3 157 -29z"/>
<path d="M6527 2284 c-4 -4 -4 -17 -1 -29 3 -14 -6 -44 -25 -81 -49 -97 -221
-454 -221 -459 0 -3 33 -5 74 -5 l73 0 5 48 c3 29 14 61 28 80 l24 32 118 0
118 0 25 -40 c16 -25 25 -54 25 -80 l0 -40 85 0 c47 0 85 3 85 8 0 4 -56 119
-125 256 -87 172 -125 258 -125 282 l0 34 -78 0 c-43 0 -82 -3 -85 -6z m122
-245 c22 -53 30 -84 24 -90 -6 -6 -41 -9 -79 -7 -65 3 -69 4 -67 25 4 33 64
153 77 153 6 0 26 -36 45 -81z"/>
<path d="M2250 1540 l-35 -5 0 -125 0 -125 108 0 c131 0 145 18 20 25 l-88 5
-3 34 c-4 42 8 51 76 51 74 0 65 24 -10 28 -66 3 -86 19 -67 54 18 35 28 38
102 37 66 -2 88 4 73 18 -8 9 -124 10 -176 3z"/>
<path d="M2911 1541 l-43 -6 0 -125 c0 -105 2 -126 15 -128 13 -3 17 9 19 55
l3 58 35 3 c30 2 41 -3 68 -33 18 -19 37 -46 42 -60 9 -24 29 -32 43 -19 7 7
-9 42 -30 62 -20 20 -16 38 17 72 17 17 30 37 30 45 0 26 -45 66 -85 75 -43
10 -47 10 -114 1z m136 -45 c23 -20 26 -28 17 -43 -9 -15 -25 -18 -85 -18 -74
0 -74 0 -77 28 -5 42 13 57 69 57 36 0 55 -6 76 -24z"/>
<path d="M4165 1529 c-70 -28 -95 -59 -95 -117 1 -106 115 -162 226 -112 41
19 44 23 44 60 0 21 -3 41 -8 43 -12 8 -102 -5 -102 -14 0 -5 16 -9 35 -9 43
0 55 -22 30 -50 -14 -15 -31 -20 -75 -20 -50 0 -59 3 -88 33 -54 56 -41 117
35 160 40 22 50 21 108 -4 25 -11 49 -18 52 -15 12 12 -8 36 -30 36 -13 0 -27
4 -32 9 -21 19 -52 19 -100 0z"/>
<path d="M5250 1528 c0 -13 7 -16 33 -12 59 10 68 -8 70 -126 2 -86 5 -105 17
-105 12 0 15 18 17 95 4 137 5 140 53 138 41 -1 59 6 46 20 -4 4 -59 7 -122 7
-100 0 -114 -2 -114 -17z"/>
<path d="M6024 1538 c-11 -17 9 -29 38 -23 21 5 35 2 49 -11 18 -17 20 -29 18
-119 -3 -93 -2 -100 17 -100 17 0 19 9 24 115 l5 115 40 0 c28 0 40 4 40 14 0
12 -22 15 -113 16 -62 1 -115 -3 -118 -7z"/>
<path d="M6872 1542 l-43 -3 3 -127 3 -127 103 0 c126 0 144 19 22 23 -85 3
-100 9 -100 44 0 31 29 48 82 48 72 0 58 24 -18 30 -55 5 -59 7 -62 31 -5 46
21 61 102 57 58 -2 71 0 71 12 0 15 -57 20 -163 12z"/>
<path d="M1935 1428 c0 -62 -2 -120 -5 -128 -4 -13 11 -15 103 -15 128 0 146
18 25 25 l-83 5 -3 113 c-2 99 -5 112 -20 112 -16 0 -18 -12 -17 -112z"/>
<path d="M2617 1492 c-10 -26 -22 -54 -27 -62 -42 -70 -69 -135 -61 -143 14
-14 39 8 43 36 3 20 10 22 67 25 65 3 101 -13 101 -45 0 -7 7 -16 15 -19 36
-14 32 11 -14 104 -27 53 -52 109 -55 125 -5 19 -12 27 -29 27 -17 0 -26 -11
-40 -48z m50 -34 c42 -40 24 -91 -29 -81 -21 4 -28 11 -28 29 0 12 5 26 10 29
6 3 10 15 10 26 0 25 8 24 37 -3z"/>
<path d="M3208 1430 c-1 -60 -2 -118 -2 -127 -1 -10 5 -18 13 -18 12 0 15 19
15 89 1 59 5 91 13 93 13 5 141 -125 161 -163 7 -13 21 -24 32 -24 19 0 20 7
20 130 0 107 -3 130 -14 130 -22 0 -23 -8 -17 -82 7 -77 5 -88 -16 -88 -17 0
-120 107 -141 146 -8 15 -22 24 -37 24 -25 0 -25 0 -27 -110z"/>
<path d="M3569 1536 c-2 -2 -4 -60 -3 -128 1 -114 2 -123 20 -123 10 0 19 6
18 13 -1 6 -2 64 -2 127 -2 88 -5 115 -15 115 -8 0 -16 -2 -18 -4z"/>
<path d="M3728 1534 c-4 -3 -2 -20 3 -37 13 -46 11 -171 -3 -185 -9 -9 -9 -15
-1 -23 19 -19 35 1 32 40 -5 83 1 131 15 131 17 0 134 -119 150 -152 7 -13 20
-23 31 -23 19 0 20 8 23 128 2 108 0 127 -13 127 -12 0 -15 -15 -15 -84 0 -51
-4 -88 -11 -92 -13 -7 -136 119 -150 154 -8 21 -47 31 -61 16z"/>
<path d="M4619 1535 c-9 -8 -2 -249 7 -252 24 -7 29 19 26 135 -2 90 -6 122
-16 122 -7 0 -15 -2 -17 -5z"/>
<path d="M4760 1410 c0 -109 2 -130 15 -130 12 0 15 17 15 89 0 58 4 92 12 97
13 8 127 -111 154 -158 8 -16 22 -28 32 -28 16 0 18 12 17 130 0 92 -3 130
-12 130 -17 0 -21 -19 -16 -72 7 -57 -3 -98 -22 -98 -8 0 -15 3 -15 8 0 4 -27
35 -60 69 -33 34 -60 69 -60 78 0 10 -10 15 -30 15 l-30 0 0 -130z"/>
<path d="M5139 1533 c0 -5 -1 -62 -1 -128 0 -108 1 -120 17 -120 16 0 18 12
17 115 0 63 -1 121 -1 128 -1 13 -30 17 -32 5z"/>
<path d="M5579 1426 c-1 -64 -2 -122 -3 -128 -1 -7 8 -13 19 -13 19 0 20 7 20
125 0 110 -3 125 -18 128 -15 3 -17 -8 -18 -112z"/>
<path d="M5817 1533 c-4 -3 -7 -19 -7 -33 0 -15 -7 -33 -15 -40 -8 -7 -15 -20
-15 -30 0 -10 -7 -23 -15 -30 -8 -7 -15 -19 -15 -28 0 -8 -6 -23 -14 -31 -22
-25 -24 -55 -3 -59 13 -3 17 3 17 22 0 33 26 46 90 46 61 0 90 -13 90 -41 0
-23 26 -37 42 -21 6 6 1 23 -16 51 -14 22 -26 47 -26 55 0 7 -7 19 -15 26 -8
7 -15 20 -15 29 0 9 -7 25 -15 35 -8 11 -15 28 -15 38 0 12 -7 18 -23 18 -13
0 -27 -3 -30 -7z m57 -103 c8 -27 7 -35 -9 -47 -33 -23 -50 -12 -53 34 -2 33
1 42 15 46 29 7 37 2 47 -33z"/>
<path d="M6354 1527 c-9 -24 1 -240 11 -244 25 -7 30 17 27 135 -3 99 -6 122
-18 122 -8 0 -17 -6 -20 -13z"/>
<path d="M6490 1528 c0 -7 23 -57 50 -111 28 -55 50 -108 50 -119 0 -15 6 -19
28 -16 22 2 28 8 30 35 2 17 10 37 18 43 8 7 14 20 14 30 0 10 7 23 15 30 8 7
15 20 15 30 0 10 7 23 15 30 8 7 15 23 15 36 0 15 -6 24 -15 24 -8 0 -15 -6
-15 -14 0 -8 -8 -29 -17 -48 -9 -18 -22 -45 -30 -60 -7 -14 -13 -36 -13 -48 0
-16 -5 -21 -22 -18 -23 3 -50 49 -83 141 -13 33 -23 47 -36 47 -11 0 -19 -6
-19 -12z"/>
</g>
</svg>
